<svg id="Layer_1" data-name="Layer 1" xmlns="http://www.w3.org/2000/svg" xmlns:xlink="http://www.w3.org/1999/xlink" viewBox="0 0 432 288"><defs><style>.cls-1,.cls-3,.cls-4,.cls-5{fill:none;}.cls-2{clip-path:url(#clip-path);}.cls-3{stroke:#ebebeb;}.cls-3,.cls-4{stroke-linejoin:round;stroke-width:1.07px;}.cls-4{stroke:#52616b;}.cls-5{font-size:8.96px;font-family:MyriadPro-Regular, Myriad Pro;}.cls-6{font-size:7px;}.cls-12,.cls-13,.cls-6{font-family:ProximaNova-Regular, Proxima Nova;}.cls-7{letter-spacing:-0.03em;}.cls-8{letter-spacing:0em;}.cls-12,.cls-13,.cls-9{font-size:6.3px;}.cls-9{font-family:Helvetica, Helvetica;}.cls-10,.cls-13{fill:#e1b16a;}.cls-11,.cls-12{fill:#78a5a3;}</style><clipPath id="clip-path" transform="translate(76.67 45.33)"><rect class="cls-1" x="50.73" y="16.44" width="237.98" height="145.88"/></clipPath></defs><title>activity</title><rect class="cls-1" width="432" height="288"/><g class="cls-2"><rect class="cls-1" x="127.39" y="61.77" width="237.98" height="145.88"/><line class="cls-3" x1="127.39" y1="180.3" x2="365.37" y2="180.3"/><line class="cls-3" x1="127.39" y1="134.71" x2="365.37" y2="134.71"/><line class="cls-3" x1="127.39" y1="89.12" x2="365.37" y2="89.12"/><line class="cls-3" x1="138.21" y1="207.65" x2="138.21" y2="61.77"/><line class="cls-3" x1="181.48" y1="207.65" x2="181.48" y2="61.77"/><line class="cls-3" x1="224.75" y1="207.65" x2="224.75" y2="61.77"/><line class="cls-3" x1="268.01" y1="207.65" x2="268.01" y2="61.77"/><line class="cls-3" x1="311.29" y1="207.65" x2="311.29" y2="61.77"/><line class="cls-3" x1="354.56" y1="207.65" x2="354.56" y2="61.77"/><line class="cls-4" x1="188.4" y1="180.3" x2="280.35" y2="180.3"/><text class="cls-5" transform="translate(184.85 183.4)">●</text><text x="76.67" y="45.33"></text><text class="cls-5" transform="translate(276.8 183.4)">●</text><text x="76.67" y="45.33"></text><line class="cls-4" x1="210.68" y1="134.71" x2="295.49" y2="134.71"/><text class="cls-5" transform="translate(207.14 137.82)">●</text><text class="cls-5" transform="translate(291.94 137.82)">●</text><text x="76.67" y="45.33"></text><line class="cls-4" x1="253.31" y1="89.12" x2="338.11" y2="89.12"/><text class="cls-5" transform="translate(249.76 92.23)">●</text><text class="cls-5" transform="translate(334.56 92.23)">●</text><text x="76.67" y="45.33"></text></g><text class="cls-6" transform="translate(80.01 179.23)">No leisure−time</text><text class="cls-6" transform="translate(80.37 185.88)">p<tspan class="cls-7" x="4.02" y="0">h</tspan><tspan class="cls-8" x="7.67" y="0">ysical activity</tspan></text><text class="cls-6" transform="translate(102.58 136.97)">Obesity</text><text class="cls-6" transform="translate(81.57 88.06)">Sleep less than</text><text class="cls-9" transform="translate(102.93 94.71)">7 hours</text><text class="cls-6" transform="translate(136.46 215.62)">0</text><text class="cls-6" transform="translate(177.98 215.62)">10</text><text class="cls-6" transform="translate(221.25 215.62)">20</text><text class="cls-6" transform="translate(264.52 215.62)">30</text><text class="cls-6" transform="translate(307.78 215.62)">40</text><text class="cls-6" transform="translate(351.05 215.62)">50</text><text class="cls-6" transform="translate(80.37 240.95)">Source: CDC 500 Cities Project</text><text class="cls-6" transform="translate(80.01 54.98)">Percent reporting, D.C.’s lowest and highest income communities</text><circle class="cls-10" cx="252.19" cy="88.76" r="3.85"/><circle class="cls-10" cx="209.83" cy="134.71" r="3.85"/><circle class="cls-10" cx="187.32" cy="180.63" r="3.85"/><circle class="cls-11" cx="337.43" cy="88.76" r="3.85"/><circle class="cls-11" cx="295.19" cy="134.71" r="3.85"/><circle class="cls-11" cx="279.54" cy="180.63" r="3.85"/><text class="cls-12" transform="translate(327.67 97.68)">lowest<tspan x="0" y="6.3">income</tspan></text><text class="cls-13" transform="translate(240.87 97.68)">highest<tspan x="0" y="6.3">income</tspan></text><image width="300" height="150" transform="translate(319.74 221.82) scale(0.15 0.15)" xlink:href="../../Website/DataLensDCsite/iframes/dcpc/dcpcSm.png"/><text x="76.67" y="45.33"></text></svg>